<svg xmlns="http://www.w3.org/2000/svg" xmlns:xlink="http://www.w3.org/1999/xlink" width="480" zoomAndPan="magnify" viewBox="0 0 360 503.999982" height="672" preserveAspectRatio="xMidYMid meet" version="1.0"><defs><g/><clipPath id="8ca14ffa01"><rect x="0" width="171" y="0" height="9"/></clipPath></defs><g fill="#0068a9" fill-opacity="1"><g transform="translate(54.665253, 251.904722)"><g><path d="M 19.75 -24.359375 L 19.75 -19.71875 L 7.9375 -19.71875 L 7.9375 -14.53125 L 18.40625 -14.53125 L 18.40625 -9.890625 L 7.9375 -9.890625 L 7.9375 -4.640625 L 20.21875 -4.640625 L 20.21875 0 L 3.140625 0 L 3.140625 -24.359375 Z M 19.75 -24.359375 "/></g></g></g><g fill="#0068a9" fill-opacity="1"><g transform="translate(85.467688, 251.904722)"><g><path d="M 16.984375 0 L 11.515625 -8.40625 L 6.78125 0 L 0.828125 0 L 8.796875 -12.578125 L 1.15625 -24.359375 L 7.28125 -24.359375 L 12.546875 -16.28125 L 17.109375 -24.359375 L 22.9375 -24.359375 L 15.1875 -12.25 L 23.171875 0 Z M 16.984375 0 "/></g></g></g><g fill="#0068a9" fill-opacity="1"><g transform="translate(118.221957, 251.904722)"><g><path d="M 17.90625 -24.359375 L 17.90625 -19.71875 L 11.984375 -19.71875 L 11.984375 0 L 7.1875 0 L 7.1875 -19.71875 L 1.484375 -19.71875 L 1.484375 -24.359375 Z M 17.90625 -24.359375 "/></g></g></g><g fill="#0068a9" fill-opacity="1"><g transform="translate(146.377831, 251.904722)"><g><path d="M 19.75 -24.359375 L 19.75 -19.71875 L 7.9375 -19.71875 L 7.9375 -14.53125 L 18.40625 -14.53125 L 18.40625 -9.890625 L 7.9375 -9.890625 L 7.9375 -4.640625 L 20.21875 -4.640625 L 20.21875 0 L 3.140625 0 L 3.140625 -24.359375 Z M 19.75 -24.359375 "/></g></g></g><g fill="#0068a9" fill-opacity="1"><g transform="translate(177.180266, 251.904722)"><g><path d="M 25.078125 -24.359375 L 25.078125 1 L 24.953125 1 L 7.90625 -14.390625 L 8.015625 0 L 3.140625 0 L 3.140625 -25.3125 L 3.34375 -25.3125 L 20.359375 -9.703125 L 20.25 -24.359375 Z M 25.078125 -24.359375 "/></g></g></g><g fill="#0068a9" fill-opacity="1"><g transform="translate(214.169032, 251.904722)"><g><path d="M 3.140625 -24.359375 L 10.421875 -24.359375 C 13.535156 -24.359375 16.09375 -23.753906 18.09375 -22.546875 C 20.101562 -21.347656 21.566406 -19.796875 22.484375 -17.890625 C 23.398438 -15.984375 23.859375 -13.9375 23.859375 -11.75 C 23.859375 -9.40625 23.304688 -7.335938 22.203125 -5.546875 C 21.097656 -3.765625 19.613281 -2.394531 17.75 -1.4375 C 15.882812 -0.476562 13.835938 0 11.609375 0 L 3.140625 0 Z M 10.78125 -4.640625 C 13.28125 -4.640625 15.253906 -5.273438 16.703125 -6.546875 C 18.160156 -7.828125 18.890625 -9.671875 18.890625 -12.078125 C 18.890625 -14.015625 18.488281 -15.554688 17.6875 -16.703125 C 16.882812 -17.859375 15.945312 -18.65625 14.875 -19.09375 C 13.800781 -19.53125 12.789062 -19.75 11.84375 -19.75 L 7.9375 -19.75 L 7.9375 -4.640625 Z M 10.78125 -4.640625 "/></g></g></g><g fill="#0068a9" fill-opacity="1"><g transform="translate(248.445068, 251.904722)"><g/></g></g><g fill="#0068a9" fill-opacity="1"><g transform="translate(267.966535, 251.904722)"><g><path d="M 7.9375 -24.359375 L 7.9375 0 L 3.140625 0 L 3.140625 -24.359375 Z M 7.9375 -24.359375 "/></g></g></g><g fill="#0068a9" fill-opacity="1"><g transform="translate(287.818829, 251.904722)"><g><path d="M 17.90625 -24.359375 L 17.90625 -19.71875 L 11.984375 -19.71875 L 11.984375 0 L 7.1875 0 L 7.1875 -19.71875 L 1.484375 -19.71875 L 1.484375 -24.359375 Z M 17.90625 -24.359375 "/></g></g></g><g transform="matrix(1, 0, 0, 1, 97, 264)"><g clip-path="url(#8ca14ffa01)"><g fill="#0068a9" fill-opacity="1"><g transform="translate(1.160224, 6.328078)"><g><path d="M 4.375 -5.390625 L 4.375 -4.375 L 1.765625 -4.375 L 1.765625 -3.21875 L 4.078125 -3.21875 L 4.078125 -2.1875 L 1.765625 -2.1875 L 1.765625 -1.03125 L 4.484375 -1.03125 L 4.484375 0 L 0.703125 0 L 0.703125 -5.390625 Z M 4.375 -5.390625 "/></g></g></g><g fill="#0068a9" fill-opacity="1"><g transform="translate(8.969582, 6.328078)"><g><path d="M 5.546875 -5.390625 L 5.546875 0.21875 L 5.53125 0.21875 L 1.75 -3.1875 L 1.765625 0 L 0.703125 0 L 0.703125 -5.609375 L 0.734375 -5.609375 L 4.5 -2.140625 L 4.484375 -5.390625 Z M 5.546875 -5.390625 "/></g></g></g><g fill="#0068a9" fill-opacity="1"><g transform="translate(18.148883, 6.328078)"><g><path d="M 5.078125 -0.546875 C 4.992188 -0.453125 4.84375 -0.359375 4.625 -0.265625 C 4.414062 -0.171875 4.179688 -0.09375 3.921875 -0.03125 C 3.671875 0.03125 3.4375 0.0625 3.21875 0.0625 C 2.644531 0.0625 2.140625 -0.046875 1.703125 -0.265625 C 1.273438 -0.492188 0.941406 -0.800781 0.703125 -1.1875 C 0.472656 -1.582031 0.359375 -2.035156 0.359375 -2.546875 C 0.359375 -3.171875 0.484375 -3.703125 0.734375 -4.140625 C 0.984375 -4.578125 1.316406 -4.90625 1.734375 -5.125 C 2.160156 -5.34375 2.628906 -5.453125 3.140625 -5.453125 C 3.460938 -5.453125 3.765625 -5.414062 4.046875 -5.34375 C 4.335938 -5.269531 4.597656 -5.175781 4.828125 -5.0625 L 4.484375 -4.0625 C 4.335938 -4.144531 4.140625 -4.21875 3.890625 -4.28125 C 3.648438 -4.34375 3.445312 -4.375 3.28125 -4.375 C 2.6875 -4.375 2.234375 -4.226562 1.921875 -3.9375 C 1.617188 -3.644531 1.46875 -3.210938 1.46875 -2.640625 C 1.46875 -2.304688 1.539062 -2.015625 1.6875 -1.765625 C 1.84375 -1.523438 2.054688 -1.335938 2.328125 -1.203125 C 2.597656 -1.066406 2.90625 -1 3.25 -1 C 3.582031 -1 3.832031 -1.046875 4 -1.140625 L 4 -1.796875 L 3.0625 -1.796875 L 3.0625 -2.828125 L 5.078125 -2.828125 Z M 5.078125 -0.546875 "/></g></g></g><g fill="#0068a9" fill-opacity="1"><g transform="translate(26.661526, 6.328078)"><g><path d="M 1.765625 -5.390625 L 1.765625 0 L 0.703125 0 L 0.703125 -5.390625 Z M 1.765625 -5.390625 "/></g></g></g><g fill="#0068a9" fill-opacity="1"><g transform="translate(32.046025, 6.328078)"><g><path d="M 5.546875 -5.390625 L 5.546875 0.21875 L 5.53125 0.21875 L 1.75 -3.1875 L 1.765625 0 L 0.703125 0 L 0.703125 -5.609375 L 0.734375 -5.609375 L 4.5 -2.140625 L 4.484375 -5.390625 Z M 5.546875 -5.390625 "/></g></g></g><g fill="#0068a9" fill-opacity="1"><g transform="translate(41.225326, 6.328078)"><g><path d="M 4.375 -5.390625 L 4.375 -4.375 L 1.765625 -4.375 L 1.765625 -3.21875 L 4.078125 -3.21875 L 4.078125 -2.1875 L 1.765625 -2.1875 L 1.765625 -1.03125 L 4.484375 -1.03125 L 4.484375 0 L 0.703125 0 L 0.703125 -5.390625 Z M 4.375 -5.390625 "/></g></g></g><g fill="#0068a9" fill-opacity="1"><g transform="translate(49.034684, 6.328078)"><g><path d="M 4.375 -5.390625 L 4.375 -4.375 L 1.765625 -4.375 L 1.765625 -3.21875 L 4.078125 -3.21875 L 4.078125 -2.1875 L 1.765625 -2.1875 L 1.765625 -1.03125 L 4.484375 -1.03125 L 4.484375 0 L 0.703125 0 L 0.703125 -5.390625 Z M 4.375 -5.390625 "/></g></g></g><g fill="#0068a9" fill-opacity="1"><g transform="translate(56.844043, 6.328078)"><g><path d="M 3.609375 0 L 2.46875 -1.71875 L 1.765625 -1.71875 L 1.765625 0 L 0.703125 0 L 0.703125 -5.390625 L 2.328125 -5.390625 C 2.992188 -5.390625 3.507812 -5.226562 3.875 -4.90625 C 4.25 -4.582031 4.4375 -4.140625 4.4375 -3.578125 C 4.4375 -3.242188 4.363281 -2.929688 4.21875 -2.640625 C 4.082031 -2.347656 3.875 -2.117188 3.59375 -1.953125 L 4.84375 0 Z M 1.765625 -2.734375 L 2.515625 -2.734375 C 2.804688 -2.734375 3.015625 -2.816406 3.140625 -2.984375 C 3.273438 -3.160156 3.34375 -3.347656 3.34375 -3.546875 C 3.34375 -3.734375 3.285156 -3.914062 3.171875 -4.09375 C 3.054688 -4.28125 2.835938 -4.375 2.515625 -4.375 L 1.765625 -4.375 Z M 1.765625 -2.734375 "/></g></g></g><g fill="#0068a9" fill-opacity="1"><g transform="translate(64.799922, 6.328078)"><g><path d="M 1.765625 -5.390625 L 1.765625 0 L 0.703125 0 L 0.703125 -5.390625 Z M 1.765625 -5.390625 "/></g></g></g><g fill="#0068a9" fill-opacity="1"><g transform="translate(70.184421, 6.328078)"><g><path d="M 5.546875 -5.390625 L 5.546875 0.21875 L 5.53125 0.21875 L 1.75 -3.1875 L 1.765625 0 L 0.703125 0 L 0.703125 -5.609375 L 0.734375 -5.609375 L 4.5 -2.140625 L 4.484375 -5.390625 Z M 5.546875 -5.390625 "/></g></g></g><g fill="#0068a9" fill-opacity="1"><g transform="translate(79.363721, 6.328078)"><g><path d="M 5.078125 -0.546875 C 4.992188 -0.453125 4.84375 -0.359375 4.625 -0.265625 C 4.414062 -0.171875 4.179688 -0.09375 3.921875 -0.03125 C 3.671875 0.03125 3.4375 0.0625 3.21875 0.0625 C 2.644531 0.0625 2.140625 -0.046875 1.703125 -0.265625 C 1.273438 -0.492188 0.941406 -0.800781 0.703125 -1.1875 C 0.472656 -1.582031 0.359375 -2.035156 0.359375 -2.546875 C 0.359375 -3.171875 0.484375 -3.703125 0.734375 -4.140625 C 0.984375 -4.578125 1.316406 -4.90625 1.734375 -5.125 C 2.160156 -5.34375 2.628906 -5.453125 3.140625 -5.453125 C 3.460938 -5.453125 3.765625 -5.414062 4.046875 -5.34375 C 4.335938 -5.269531 4.597656 -5.175781 4.828125 -5.0625 L 4.484375 -4.0625 C 4.335938 -4.144531 4.140625 -4.21875 3.890625 -4.28125 C 3.648438 -4.34375 3.445312 -4.375 3.28125 -4.375 C 2.6875 -4.375 2.234375 -4.226562 1.921875 -3.9375 C 1.617188 -3.644531 1.46875 -3.210938 1.46875 -2.640625 C 1.46875 -2.304688 1.539062 -2.015625 1.6875 -1.765625 C 1.84375 -1.523438 2.054688 -1.335938 2.328125 -1.203125 C 2.597656 -1.066406 2.90625 -1 3.25 -1 C 3.582031 -1 3.832031 -1.046875 4 -1.140625 L 4 -1.796875 L 3.0625 -1.796875 L 3.0625 -2.828125 L 5.078125 -2.828125 Z M 5.078125 -0.546875 "/></g></g></g><g fill="#0068a9" fill-opacity="1"><g transform="translate(87.876365, 6.328078)"><g/></g></g><g fill="#0068a9" fill-opacity="1"><g transform="translate(93.187599, 6.328078)"><g><path d="M 3.96875 -5.390625 L 3.96875 -4.375 L 2.65625 -4.375 L 2.65625 0 L 1.59375 0 L 1.59375 -4.375 L 0.328125 -4.375 L 0.328125 -5.390625 Z M 3.96875 -5.390625 "/></g></g></g><g fill="#0068a9" fill-opacity="1"><g transform="translate(100.410887, 6.328078)"><g><path d="M 5.234375 0 L 4.171875 0 L 4.171875 -2.1875 L 1.765625 -2.1875 L 1.765625 0 L 0.703125 0 L 0.703125 -5.390625 L 1.765625 -5.390625 L 1.765625 -3.21875 L 4.171875 -3.21875 L 4.171875 -5.390625 L 5.234375 -5.390625 Z M 5.234375 0 "/></g></g></g><g fill="#0068a9" fill-opacity="1"><g transform="translate(109.267851, 6.328078)"><g><path d="M 4.375 -5.390625 L 4.375 -4.375 L 1.765625 -4.375 L 1.765625 -3.21875 L 4.078125 -3.21875 L 4.078125 -2.1875 L 1.765625 -2.1875 L 1.765625 -1.03125 L 4.484375 -1.03125 L 4.484375 0 L 0.703125 0 L 0.703125 -5.390625 Z M 4.375 -5.390625 "/></g></g></g><g fill="#0068a9" fill-opacity="1"><g transform="translate(117.07721, 6.328078)"><g/></g></g><g fill="#0068a9" fill-opacity="1"><g transform="translate(122.388445, 6.328078)"><g><path d="M 4.0625 -5.390625 L 4.0625 -4.375 L 1.765625 -4.375 L 1.765625 -3.140625 L 3.765625 -3.140625 L 3.765625 -2.125 L 1.765625 -2.125 L 1.765625 0 L 0.703125 0 L 0.703125 -5.390625 Z M 4.0625 -5.390625 "/></g></g></g><g fill="#0068a9" fill-opacity="1"><g transform="translate(129.714303, 6.328078)"><g><path d="M 1.65625 -2 C 1.65625 -1.820312 1.703125 -1.65625 1.796875 -1.5 C 1.898438 -1.34375 2.035156 -1.210938 2.203125 -1.109375 C 2.378906 -1.015625 2.566406 -0.96875 2.765625 -0.96875 C 2.972656 -0.96875 3.164062 -1.015625 3.34375 -1.109375 C 3.519531 -1.210938 3.65625 -1.34375 3.75 -1.5 C 3.851562 -1.65625 3.90625 -1.820312 3.90625 -2 L 3.90625 -5.390625 L 4.953125 -5.390625 L 4.953125 -1.96875 C 4.953125 -1.582031 4.851562 -1.234375 4.65625 -0.921875 C 4.46875 -0.617188 4.203125 -0.378906 3.859375 -0.203125 C 3.523438 -0.0234375 3.160156 0.0625 2.765625 0.0625 C 2.359375 0.0625 1.988281 -0.0234375 1.65625 -0.203125 C 1.332031 -0.378906 1.070312 -0.617188 0.875 -0.921875 C 0.6875 -1.234375 0.59375 -1.582031 0.59375 -1.96875 L 0.59375 -5.390625 L 1.65625 -5.390625 Z M 1.65625 -2 "/></g></g></g><g fill="#0068a9" fill-opacity="1"><g transform="translate(138.182997, 6.328078)"><g><path d="M 3.96875 -5.390625 L 3.96875 -4.375 L 2.65625 -4.375 L 2.65625 0 L 1.59375 0 L 1.59375 -4.375 L 0.328125 -4.375 L 0.328125 -5.390625 Z M 3.96875 -5.390625 "/></g></g></g><g fill="#0068a9" fill-opacity="1"><g transform="translate(145.406285, 6.328078)"><g><path d="M 1.65625 -2 C 1.65625 -1.820312 1.703125 -1.65625 1.796875 -1.5 C 1.898438 -1.34375 2.035156 -1.210938 2.203125 -1.109375 C 2.378906 -1.015625 2.566406 -0.96875 2.765625 -0.96875 C 2.972656 -0.96875 3.164062 -1.015625 3.34375 -1.109375 C 3.519531 -1.210938 3.65625 -1.34375 3.75 -1.5 C 3.851562 -1.65625 3.90625 -1.820312 3.90625 -2 L 3.90625 -5.390625 L 4.953125 -5.390625 L 4.953125 -1.96875 C 4.953125 -1.582031 4.851562 -1.234375 4.65625 -0.921875 C 4.46875 -0.617188 4.203125 -0.378906 3.859375 -0.203125 C 3.523438 -0.0234375 3.160156 0.0625 2.765625 0.0625 C 2.359375 0.0625 1.988281 -0.0234375 1.65625 -0.203125 C 1.332031 -0.378906 1.070312 -0.617188 0.875 -0.921875 C 0.6875 -1.234375 0.59375 -1.582031 0.59375 -1.96875 L 0.59375 -5.390625 L 1.65625 -5.390625 Z M 1.65625 -2 "/></g></g></g><g fill="#0068a9" fill-opacity="1"><g transform="translate(153.874979, 6.328078)"><g><path d="M 3.609375 0 L 2.46875 -1.71875 L 1.765625 -1.71875 L 1.765625 0 L 0.703125 0 L 0.703125 -5.390625 L 2.328125 -5.390625 C 2.992188 -5.390625 3.507812 -5.226562 3.875 -4.90625 C 4.25 -4.582031 4.4375 -4.140625 4.4375 -3.578125 C 4.4375 -3.242188 4.363281 -2.929688 4.21875 -2.640625 C 4.082031 -2.347656 3.875 -2.117188 3.59375 -1.953125 L 4.84375 0 Z M 1.765625 -2.734375 L 2.515625 -2.734375 C 2.804688 -2.734375 3.015625 -2.816406 3.140625 -2.984375 C 3.273438 -3.160156 3.34375 -3.347656 3.34375 -3.546875 C 3.34375 -3.734375 3.285156 -3.914062 3.171875 -4.09375 C 3.054688 -4.28125 2.835938 -4.375 2.515625 -4.375 L 1.765625 -4.375 Z M 1.765625 -2.734375 "/></g></g></g><g fill="#0068a9" fill-opacity="1"><g transform="translate(161.830858, 6.328078)"><g><path d="M 4.375 -5.390625 L 4.375 -4.375 L 1.765625 -4.375 L 1.765625 -3.21875 L 4.078125 -3.21875 L 4.078125 -2.1875 L 1.765625 -2.1875 L 1.765625 -1.03125 L 4.484375 -1.03125 L 4.484375 0 L 0.703125 0 L 0.703125 -5.390625 Z M 4.375 -5.390625 "/></g></g></g></g></g></svg>